# Blender v2.74 (sub 0) OBJ File: ''
# www.blender.org
mtllib untitled-scene.mtl
o Cone
v 0.000000 0.500000 0.000000
v 0.000000 -0.500000 0.500000
v 0.250000 -0.500000 0.433000
v 0.433000 -0.500000 0.250000
v 0.500000 -0.500000 0.000000
v 0.433000 -0.500000 -0.250000
v 0.250000 -0.500000 -0.433000
v 0.000000 -0.500000 -0.500000
v -0.250000 -0.500000 -0.433000
v -0.433000 -0.500000 -0.250000
v -0.500000 -0.500000 0.000000
v -0.433000 -0.500000 0.250000
v -0.250000 -0.500000 0.433000
v 0.000000 -0.500000 0.000000
vt 0.000000 1.000000
vt 0.000000 0.000000
vt 0.083333 0.000000
vt 0.083333 1.000000
vt 0.166667 0.000000
vt 0.166667 1.000000
vt 0.250000 0.000000
vt 0.250000 1.000000
vt 0.333333 0.000000
vt 0.333333 1.000000
vt 0.416667 0.000000
vt 0.416667 1.000000
vt 0.500000 0.000000
vt 0.500000 1.000000
vt 0.583333 0.000000
vt 0.583333 1.000000
vt 0.666667 0.000000
vt 0.666667 1.000000
vt 0.750000 0.000000
vt 0.750000 1.000000
vt 0.833333 0.000000
vt 0.833333 1.000000
vt 0.916667 0.000000
vt 0.916667 1.000000
vt 1.000000 0.000000
vn 0.040700 0.987500 0.152000
vn 0.000000 0.447200 0.894400
vn 0.447200 0.447200 0.774600
vn 0.774600 0.447200 0.447200
vn 0.894400 0.447200 0.000000
vn 0.774600 0.447200 -0.447200
vn 0.447200 0.447200 -0.774600
vn 0.000000 0.447200 -0.894400
vn -0.447200 0.447200 -0.774600
vn -0.774600 0.447200 -0.447200
vn -0.894400 0.447200 0.000000
vn -0.774600 0.447200 0.447200
vn -0.447200 0.447200 0.774600
vn 0.000000 -1.000000 0.000000
usemtl b0b0b0
s 1
f 1/1/1 2/2/2 3/3/3
f 1/4/1 3/3/3 4/5/4
f 1/6/1 4/5/4 5/7/5
f 1/8/1 5/7/5 6/9/6
f 1/10/1 6/9/6 7/11/7
f 1/12/1 7/11/7 8/13/8
f 1/14/1 8/13/8 9/15/9
f 1/16/1 9/15/9 10/17/10
f 1/18/1 10/17/10 11/19/11
f 1/20/1 11/19/11 12/21/12
f 1/22/1 12/21/12 13/23/13
f 1/24/1 13/23/13 2/25/2
f 3/3/14 2/2/14 14/1/14
f 4/5/14 3/3/14 14/1/14
f 5/7/14 4/5/14 14/1/14
f 6/9/14 5/7/14 14/1/14
f 7/11/14 6/9/14 14/1/14
f 8/13/14 7/11/14 14/1/14
f 9/15/14 8/13/14 14/1/14
f 10/17/14 9/15/14 14/1/14
f 11/19/14 10/17/14 14/1/14
f 12/21/14 11/19/14 14/1/14
f 13/23/14 12/21/14 14/1/14
f 2/25/14 13/23/14 14/1/14
