# Blender v2.74 (sub 0) OBJ File: ''
# www.blender.org
mtllib cylinder-notop.mtl
o Merged_Meshes
v 0.000000 0.500000 0.500000
v 0.129400 0.500000 0.483000
v 0.250000 0.500000 0.433000
v 0.353600 0.500000 0.353600
v 0.433000 0.500000 0.250000
v 0.483000 0.500000 0.129400
v 0.500000 0.500000 0.000000
v 0.483000 0.500000 -0.129400
v 0.433000 0.500000 -0.250000
v 0.353600 0.500000 -0.353600
v 0.250000 0.500000 -0.433000
v 0.129400 0.500000 -0.483000
v 0.000000 0.500000 -0.500000
v -0.129400 0.500000 -0.483000
v -0.250000 0.500000 -0.433000
v -0.353600 0.500000 -0.353600
v -0.433000 0.500000 -0.250000
v -0.483000 0.500000 -0.129400
v -0.500000 0.500000 0.000000
v -0.483000 0.500000 0.129400
v -0.433000 0.500000 0.250000
v -0.353600 0.500000 0.353600
v -0.250000 0.500000 0.433000
v -0.129400 0.500000 0.483000
v 0.000000 -0.500000 0.500000
v 0.129400 -0.500000 0.483000
v 0.250000 -0.500000 0.433000
v 0.353600 -0.500000 0.353600
v 0.433000 -0.500000 0.250000
v 0.483000 -0.500000 0.129400
v 0.500000 -0.500000 0.000000
v 0.483000 -0.500000 -0.129400
v 0.433000 -0.500000 -0.250000
v 0.353600 -0.500000 -0.353600
v 0.250000 -0.500000 -0.433000
v 0.129400 -0.500000 -0.483000
v 0.000000 -0.500000 -0.500000
v -0.129400 -0.500000 -0.483000
v -0.250000 -0.500000 -0.433000
v -0.353600 -0.500000 -0.353600
v -0.433000 -0.500000 -0.250000
v -0.483000 -0.500000 -0.129400
v -0.500000 -0.500000 0.000000
v -0.483000 -0.500000 0.129400
v -0.433000 -0.500000 0.250000
v -0.353600 -0.500000 0.353600
v -0.250000 -0.500000 0.433000
v -0.129400 -0.500000 0.483000
v 0.000000 0.500000 0.500000
v 0.129400 0.500000 0.483000
v 0.250000 0.500000 0.433000
v 0.353600 0.500000 0.353600
v 0.433000 0.500000 0.250000
v 0.483000 0.500000 0.129400
v 0.500000 0.500000 0.000000
v 0.483000 0.500000 -0.129400
v 0.433000 0.500000 -0.250000
v 0.353600 0.500000 -0.353600
v 0.250000 0.500000 -0.433000
v 0.129400 0.500000 -0.483000
v 0.000000 0.500000 -0.500000
v -0.129400 0.500000 -0.483000
v -0.250000 0.500000 -0.433000
v -0.353600 0.500000 -0.353600
v -0.433000 0.500000 -0.250000
v -0.483000 0.500000 -0.129400
v -0.500000 0.500000 0.000000
v -0.483000 0.500000 0.129400
v -0.433000 0.500000 0.250000
v -0.353600 0.500000 0.353600
v -0.250000 0.500000 0.433000
v -0.129400 0.500000 0.483000
v 0.000000 -0.500000 0.500000
v 0.129400 -0.500000 0.483000
v 0.250000 -0.500000 0.433000
v 0.353600 -0.500000 0.353600
v 0.433000 -0.500000 0.250000
v 0.483000 -0.500000 0.129400
v 0.500000 -0.500000 0.000000
v 0.483000 -0.500000 -0.129400
v 0.433000 -0.500000 -0.250000
v 0.353600 -0.500000 -0.353600
v 0.250000 -0.500000 -0.433000
v 0.129400 -0.500000 -0.483000
v 0.000000 -0.500000 -0.500000
v -0.129400 -0.500000 -0.483000
v -0.250000 -0.500000 -0.433000
v -0.353600 -0.500000 -0.353600
v -0.433000 -0.500000 -0.250000
v -0.483000 -0.500000 -0.129400
v -0.500000 -0.500000 0.000000
v -0.483000 -0.500000 0.129400
v -0.433000 -0.500000 0.250000
v -0.353600 -0.500000 0.353600
v -0.250000 -0.500000 0.433000
v -0.129400 -0.500000 0.483000
vt 0.000000 1.000000
vt 0.000000 0.000000
vt 0.041667 0.000000
vt 0.041667 1.000000
vt 0.083333 0.000000
vt 0.083333 1.000000
vt 0.125000 0.000000
vt 0.125000 1.000000
vt 0.166667 0.000000
vt 0.166667 1.000000
vt 0.208333 0.000000
vt 0.208333 1.000000
vt 0.250000 0.000000
vt 0.250000 1.000000
vt 0.291667 0.000000
vt 0.291667 1.000000
vt 0.333333 0.000000
vt 0.333333 1.000000
vt 0.375000 0.000000
vt 0.375000 1.000000
vt 0.416667 0.000000
vt 0.416667 1.000000
vt 0.458333 0.000000
vt 0.458333 1.000000
vt 0.500000 0.000000
vt 0.500000 1.000000
vt 0.541667 0.000000
vt 0.541667 1.000000
vt 0.583333 0.000000
vt 0.583333 1.000000
vt 0.625000 0.000000
vt 0.625000 1.000000
vt 0.666667 0.000000
vt 0.666667 1.000000
vt 0.708333 0.000000
vt 0.708333 1.000000
vt 0.750000 0.000000
vt 0.750000 1.000000
vt 0.791667 0.000000
vt 0.791667 1.000000
vt 0.833333 0.000000
vt 0.833333 1.000000
vt 0.875000 0.000000
vt 0.875000 1.000000
vt 0.916667 0.000000
vt 0.916667 1.000000
vt 0.958333 0.000000
vt 0.958333 1.000000
vt 1.000000 0.000000
vt 1.000000 1.000000
vn 0.130300 0.000000 0.991500
vn 0.383000 0.000000 0.923800
vn 0.608300 0.000000 0.793700
vn 0.793700 0.000000 0.608300
vn 0.923800 0.000000 0.383000
vn 0.991500 0.000000 0.130300
vn 0.991500 0.000000 -0.130300
vn 0.923800 0.000000 -0.383000
vn 0.793700 0.000000 -0.608300
vn 0.608300 0.000000 -0.793700
vn 0.383000 0.000000 -0.923800
vn 0.130300 0.000000 -0.991500
vn -0.130300 0.000000 -0.991500
vn -0.383000 0.000000 -0.923800
vn -0.608300 0.000000 -0.793700
vn -0.793700 0.000000 -0.608300
vn -0.923800 0.000000 -0.383000
vn -0.991500 0.000000 -0.130300
vn -0.991500 0.000000 0.130300
vn -0.923800 0.000000 0.383000
vn -0.793700 0.000000 0.608300
vn -0.608300 0.000000 0.793700
vn -0.383000 0.000000 0.923800
vn -0.130300 0.000000 0.991500
usemtl b0b0b0
s 1
f 1/1/1 25/2/1 26/3/1 2/4/1
f 2/4/2 26/3/2 27/5/2 3/6/2
f 3/6/3 27/5/3 28/7/3 4/8/3
f 4/8/4 28/7/4 29/9/4 5/10/4
f 5/10/5 29/9/5 30/11/5 6/12/5
f 6/12/6 30/11/6 31/13/6 7/14/6
f 7/14/7 31/13/7 32/15/7 8/16/7
f 8/16/8 32/15/8 33/17/8 9/18/8
f 9/18/9 33/17/9 34/19/9 10/20/9
f 10/20/10 34/19/10 35/21/10 11/22/10
f 11/22/11 35/21/11 36/23/11 12/24/11
f 12/24/12 36/23/12 37/25/12 13/26/12
f 13/26/13 37/25/13 38/27/13 14/28/13
f 14/28/14 38/27/14 39/29/14 15/30/14
f 15/30/15 39/29/15 40/31/15 16/32/15
f 16/32/16 40/31/16 41/33/16 17/34/16
f 17/34/17 41/33/17 42/35/17 18/36/17
f 18/36/18 42/35/18 43/37/18 19/38/18
f 19/38/19 43/37/19 44/39/19 20/40/19
f 20/40/20 44/39/20 45/41/20 21/42/20
f 21/42/21 45/41/21 46/43/21 22/44/21
f 22/44/22 46/43/22 47/45/22 23/46/22
f 23/46/23 47/45/23 48/47/23 24/48/23
f 24/48/24 48/47/24 25/49/24 1/50/24
f 50/4/13 74/3/13 73/2/13 49/1/13
f 51/6/14 75/5/14 74/3/14 50/4/14
f 52/8/15 76/7/15 75/5/15 51/6/15
f 53/10/16 77/9/16 76/7/16 52/8/16
f 54/12/17 78/11/17 77/9/17 53/10/17
f 55/14/18 79/13/18 78/11/18 54/12/18
f 56/16/19 80/15/19 79/13/19 55/14/19
f 57/18/20 81/17/20 80/15/20 56/16/20
f 58/20/21 82/19/21 81/17/21 57/18/21
f 59/22/22 83/21/22 82/19/22 58/20/22
f 60/24/23 84/23/23 83/21/23 59/22/23
f 61/26/24 85/25/24 84/23/24 60/24/24
f 62/28/1 86/27/1 85/25/1 61/26/1
f 63/30/2 87/29/2 86/27/2 62/28/2
f 64/32/3 88/31/3 87/29/3 63/30/3
f 65/34/4 89/33/4 88/31/4 64/32/4
f 66/36/5 90/35/5 89/33/5 65/34/5
f 67/38/6 91/37/6 90/35/6 66/36/6
f 68/40/7 92/39/7 91/37/7 67/38/7
f 69/42/8 93/41/8 92/39/8 68/40/8
f 70/44/9 94/43/9 93/41/9 69/42/9
f 71/46/10 95/45/10 94/43/10 70/44/10
f 72/48/11 96/47/11 95/45/11 71/46/11
f 49/50/12 73/49/12 96/47/12 72/48/12
